<?xml version="1.0" encoding="UTF-8"?>
<svg version="1.1" xmlns="http://www.w3.org/2000/svg" width="322" height="157">
<path d="M0 0 C106.26 0 212.52 0 322 0 C322 51.81 322 103.62 322 157 C215.74 157 109.48 157 0 157 C0 105.19 0 53.38 0 0 Z " fill="#FEFEFD" transform="translate(0,0)"/>
<path d="M0 0 C1.8984375 0.57421875 1.8984375 0.57421875 4 2 C4.9765625 5.01953125 4.9765625 5.01953125 5.625 8.8125 C5.74560791 9.48684082 5.86621582 10.16118164 5.99047852 10.85595703 C6.72142196 15.01671203 7.32974019 19.1946695 7.9375 23.375 C9.10481652 31.36662847 11.06726932 39.16587323 13 47 C13.06058594 46.28972656 13.12117188 45.57945313 13.18359375 44.84765625 C13.30927734 43.46900391 13.30927734 43.46900391 13.4375 42.0625 C13.55931641 40.68771484 13.55931641 40.68771484 13.68359375 39.28515625 C14 37 14 37 15 36 C18.57503472 35.84110957 21.55415188 36.13853797 25 37 C25.66 36.67 26.32 36.34 27 36 C30.3858163 35.58051833 33.62019639 35.51032767 37 36 C40 38.375 40 38.375 42 41 C42.66 41.66 43.32 42.32 44 43 C44.22705078 45.98095703 44.22705078 45.98095703 44.1953125 49.7578125 C44.1924826 50.42086395 44.18965271 51.08391541 44.18673706 51.76705933 C44.17553435 53.88655583 44.15043051 56.00563104 44.125 58.125 C44.11497028 59.56119182 44.10584441 60.99739025 44.09765625 62.43359375 C44.075595 65.95586628 44.04106494 69.47789203 44 73 C44.91523438 72.90460938 45.83046875 72.80921875 46.7734375 72.7109375 C47.96195312 72.60007812 49.15046875 72.48921875 50.375 72.375 C51.55835938 72.25898437 52.74171875 72.14296875 53.9609375 72.0234375 C54.96382813 72.01570313 55.96671875 72.00796875 57 72 C57.66 72.66 58.32 73.32 59 74 C54.05 74 49.1 74 44 74 C44.33 74.66 44.66 75.32 45 76 C47.32156597 76.40729228 49.6568787 76.74438677 52 77 C51.67 78.98 51.34 80.96 51 83 C47.66666667 83 44.33333333 83 41 83 C41 80.36 41 77.72 41 75 C8 74.67 -25 74.34 -59 74 C-59 61.46 -59 48.92 -59 36 C-57.02 36 -55.04 36 -53 36 C-52.34 36.66 -51.68 37.32 -51 38 C-50.01 37.34 -49.02 36.68 -48 36 C-43.84481115 35.41077432 -40.16467959 35.37504997 -36.4375 37.375 C-35 39 -35 39 -35 41 C-33.989375 40.175 -32.97875 39.35 -31.9375 38.5 C-28.19122971 35.82841735 -25.64160295 35.39831073 -21 36 C-16.46900905 37.15909071 -14.47382982 39.05812743 -12 43 C-11.38098672 46.26630611 -11.30443885 49.49420462 -11.25 52.8125 C-11.22035156 53.69615234 -11.19070312 54.57980469 -11.16015625 55.49023438 C-11.0897961 57.65967218 -11.04259393 59.82983948 -11 62 C-8.21391783 46.46548125 -5.52648196 30.90968428 -3.11328125 15.3125 C-2.97728516 14.4344873 -2.84128906 13.55647461 -2.70117188 12.65185547 C-2.4479414 11.00553923 -2.19778668 9.35874602 -1.95117188 7.71142578 C-1.10876703 2.21753406 -1.10876703 2.21753406 0 0 Z " fill="#CFA4A1" transform="translate(102,40)"/>
<path d="M0 0 C33.33 0 66.66 0 101 0 C101 10.89 101 21.78 101 33 C84.19764706 33 84.19764706 33 79 30.0625 C74.52130451 27.5435232 74.52130451 27.5435232 69.48828125 27.05859375 C66 26 66 26 64.44677734 23.69555664 C62.89232863 20.50668507 61.51566393 17.28950052 60.1875 14 C59.2484839 11.76872493 58.30472165 9.5394393 57.35546875 7.3125 C56.94965576 6.31863281 56.54384277 5.32476562 56.12573242 4.30078125 C55.21804348 1.85616086 55.21804348 1.85616086 53 1 C52.731875 1.70125 52.46375 2.4025 52.1875 3.125 C51.795625 4.07375 51.40375 5.0225 51 6 C50.608125 6.99 50.21625 7.98 49.8125 9 C47.99173548 12.0136792 47.42870292 12.45179195 44.5625 14.0625 C40.67391573 16.5274394 40.0863794 19.26601641 38.9375 23.625 C38.69902344 24.75164063 38.46054688 25.87828125 38.21484375 27.0390625 C37 30 37 30 34.33984375 31.91796875 C30.44847735 33.17868044 27.68097425 33.10840299 23.625 32.6875 C22.37976563 32.56761719 21.13453125 32.44773438 19.8515625 32.32421875 C18.91054687 32.21722656 17.96953125 32.11023438 17 32 C16.67 32.99 16.34 33.98 16 35 C13.9375 36.1875 13.9375 36.1875 12 37 C11.401875 36.505 10.80375 36.01 10.1875 35.5 C8.02970006 33.71723582 8.02970006 33.71723582 5 34 C3.9739266 35.31337396 2.97272675 36.64664105 2 38 C1.34 38 0.68 38 0 38 C0 25.46 0 12.92 0 0 Z " fill="#FCFAFA" transform="translate(173,34)"/>
<path d="M0 0 C34.65 0 69.3 0 105 0 C105 13.86 105 27.72 105 42 C70.35 42 35.7 42 0 42 C0 28.14 0 14.28 0 0 Z M1 2 C1 14.54 1 27.08 1 40 C5 38.5 5 38.5 6 36 C9.37462715 36.54723683 11.08235 37.0549 14 39 C16.0399719 37.63676257 16.0399719 37.63676257 18 36 C18 35.34 18 34.68 18 34 C18.94101563 34.10699219 19.88203125 34.21398437 20.8515625 34.32421875 C22.09679687 34.44410156 23.34203125 34.56398437 24.625 34.6875 C25.85476562 34.81511719 27.08453125 34.94273438 28.3515625 35.07421875 C32.52080077 34.98940555 34.61865587 34.4365568 38 32 C39.28942867 29.05483228 39.28942867 29.05483228 39.875 25.6875 C41.43371661 19.76699659 42.96122985 17.55271526 48.09375 14.40234375 C51.29508035 12.04726671 52.73419465 8.69748406 54 5 C54 4.34 54 3.68 54 3 C56.74652821 5.38540151 57.85839112 7.66394559 59.1640625 11.03515625 C59.56496094 12.00904297 59.96585938 12.98292969 60.37890625 13.98632812 C61.20773671 16.03242212 62.01521456 18.08729937 62.80078125 20.15039062 C64.87012792 25.55028112 64.87012792 25.55028112 69.16259766 29.03613281 C71.44433441 29.50488554 73.68566186 29.7548932 76 30 C78.7578125 31.2890625 78.7578125 31.2890625 81.125 32.625 C88.26162584 35.93697294 88.26162584 35.93697294 102 35 C102 24.11 102 13.22 102 2 C68.67 2 35.34 2 1 2 Z " fill="#57D5AE" transform="translate(172,32)"/>
<path d="M0 0 C0.66 0 1.32 0 2 0 C2 0.99 2 1.98 2 3 C0.02 3.99 -1.96 4.98 -4 6 C2.6 6.33 9.2 6.66 16 7 C16 10.96 16 14.92 16 19 C-31.52 19 -79.04 19 -128 19 C-128 15.04 -128 11.08 -128 7 C-94.67 7 -61.34 7 -27 7 C-27.33 9.97 -27.66 12.94 -28 16 C-27.34 16 -26.68 16 -26 16 C-25.67 15.34 -25.34 14.68 -25 14 C-23.68 14.66 -22.36 15.32 -21 16 C-20.67 15.34 -20.34 14.68 -20 14 C-20 14.66 -20 15.32 -20 16 C-19.34 16 -18.68 16 -18 16 C-18 14.35 -18 12.7 -18 11 C-20.31 10.67 -22.62 10.34 -25 10 C-25 9.01 -25 8.02 -25 7 C-20.71 6.67 -16.42 6.34 -12 6 C-12.99 5.01 -12.99 5.01 -14 4 C-13.15695313 3.87882812 -12.31390625 3.75765625 -11.4453125 3.6328125 C-10.34960938 3.46523437 -9.25390625 3.29765625 -8.125 3.125 C-7.03445312 2.96257812 -5.94390625 2.80015625 -4.8203125 2.6328125 C-1.88067286 2.23743487 -1.88067286 2.23743487 0 0 Z " fill="#FA3D4D" transform="translate(171,107)"/>
<path d="M0 0 C0.99 0.66 1.98 1.32 3 2 C3 1.34 3 0.68 3 0 C4.98 0 6.96 0 9 0 C10.52364352 3.04728705 10.16287318 6.22692706 10.16796875 9.5703125 C10.17129715 10.32537079 10.17462555 11.08042908 10.17805481 11.85836792 C10.18312362 13.46058544 10.18546315 15.06281353 10.18530273 16.66503906 C10.18747283 19.09458361 10.20558286 21.52366183 10.22460938 23.953125 C10.22754675 25.51301929 10.22952924 27.07291573 10.23046875 28.6328125 C10.23765427 29.35083038 10.24483978 30.06884827 10.25224304 30.80862427 C10.22994659 35.83565273 9.47262577 40.18234898 8 45 C3.18830831 49.57434367 -4.04305925 49.41773779 -10.30078125 49.3359375 C-12.98170899 49.00227645 -14.69446758 48.36908101 -17 47 C-17 45.02 -17 43.04 -17 41 C-15.30230469 41.03480469 -15.30230469 41.03480469 -13.5703125 41.0703125 C-12.08854825 41.08906901 -10.60677688 41.10726934 -9.125 41.125 C-8.37863281 41.14175781 -7.63226563 41.15851563 -6.86328125 41.17578125 C-4.90805539 41.1933959 -2.95257979 41.10320189 -1 41 C1.46278801 38.53721199 1.99771255 36.29323018 3 33 C2.45085937 33.32097656 1.90171875 33.64195313 1.3359375 33.97265625 C-2.96263265 35.86316453 -7.40838526 35.62552433 -12 35 C-15.47221133 33.56370375 -17.35909853 31.30871101 -19.0234375 27.91015625 C-21.7208404 20.67171268 -21.69851218 14.28598287 -19 7 C-14.33326378 -0.24148724 -8.13983927 -0.93815097 0 0 Z " fill="#13C697" transform="translate(205,76)"/>
<path d="M0 0 C1.10214844 -0.08121094 1.10214844 -0.08121094 2.2265625 -0.1640625 C6.66365036 -0.27342734 9.72790579 0.54903761 13.3984375 3.09765625 C17.03606112 6.64701864 17.44751059 9.52479583 17.65625 14.52734375 C17.60317337 17.17454056 17.51042354 19.79578286 17.375 22.4375 C17.33481576 23.80262979 17.29832359 25.16787353 17.265625 26.53320312 C17.1716267 29.85839304 17.04033504 33.17771956 16.875 36.5 C14.895 36.5 12.915 36.5 10.875 36.5 C10.38 34.025 10.38 34.025 9.875 31.5 C8.451875 32.49 8.451875 32.49 7 33.5 C2.44613237 36.09691026 -1.99818719 36.41103642 -7.125 35.5 C-9.70137471 33.61484777 -10.72167428 32.30665143 -12.125 29.5 C-12.64758726 25.13939483 -12.67012358 21.59024715 -10.6875 17.625 C-4.90202975 12.82729296 1.57989237 12.10208504 8.875 12.5 C8.545 10.85 8.215 9.2 7.875 7.5 C2.39038025 7.40244747 -2.70779249 7.55198869 -8.125 8.5 C-8.785 8.17 -9.445 7.84 -10.125 7.5 C-10.125 5.52 -10.125 3.54 -10.125 1.5 C-6.92453863 -0.10023069 -3.51296492 0.10753974 0 0 Z " fill="#11C898" transform="translate(163.125,75.5)"/>
<path d="M0 0 C4.46395013 2.45657633 7.23221335 5.46442671 9.5 10 C10 13 10 13 10 20 C2.08 20 -5.84 20 -14 20 C-13.85624699 26.61833734 -13.85624699 26.61833734 -11.27734375 28.421875 C-8.62668767 29.09476883 -6.29887193 29.26518098 -3.5625 29.25 C-2.63566406 29.25515625 -1.70882812 29.2603125 -0.75390625 29.265625 C2.15740649 28.98481753 4.30783199 28.089797 7 27 C7.66 27.33 8.32 27.66 9 28 C9 29.98 9 31.96 9 34 C2.62873951 36.88509909 -3.00430402 37.96418474 -10 37 C-15.63162557 34.23538381 -19.62809889 29.81825315 -22 24 C-22.64317467 18.21142801 -22.85005993 12.83089832 -20.375 7.5 C-19.199375 6.2625 -19.199375 6.2625 -18 5 C-17.175 4.05125 -16.35 3.1025 -15.5 2.125 C-10.97859104 -1.38655112 -5.379281 -1.11246911 0 0 Z " fill="#0ACB9A" transform="translate(242,76)"/>
<path d="M0 0 C0.66 0 1.32 0 2 0 C2.76157125 1.64294023 3.52309954 3.28590039 4.28442383 4.92895508 C4.93017244 6.31400829 5.58109245 7.69666174 6.23706055 9.0769043 C7.59247367 11.93224026 8.90418362 14.74163132 10.00390625 17.70703125 C10.83079801 20.10405334 10.83079801 20.10405334 13 23 C15.49988945 23.87584155 17.84125211 24.25350945 20.46875 24.57421875 C23.05034483 25.0084685 24.60662617 25.69350374 26.8125 27.0625 C31.79351533 30.09017598 36.55730316 30.1859918 42.3125 30.5625 C43.56675781 30.64628906 44.82101562 30.73007813 46.11328125 30.81640625 C47.54220703 30.90728516 47.54220703 30.90728516 49 31 C49 31.99 49 32.98 49 34 C29.53 34 10.06 34 -10 34 C-10 29.71 -10 25.42 -10 21 C-10.33 23.97 -10.66 26.94 -11 30 C-12.32 29.67 -13.64 29.34 -15 29 C-14.505 27.515 -14.505 27.515 -14 26 C-13.87625 24.9275 -13.7525 23.855 -13.625 22.75 C-12.94373006 18.66238036 -11.99080107 15.63836058 -10 12 C-9.030625 11.360625 -8.06125 10.72125 -7.0625 10.0625 C-3.07072604 7.37416244 -1.79654886 4.35398901 0 0 Z " fill="#FCF2EF" transform="translate(226,38)"/>
<path d="M0 0 C2.5625 1.375 2.5625 1.375 4 3 C4 3.66 4 4.32 4 5 C5.010625 4.175 6.02125 3.35 7.0625 2.5 C10.80877029 -0.17158265 13.35839705 -0.60168927 18 0 C21.13343209 0.97484554 22.67622995 1.67622995 25 4 C26.21518749 7.39964879 26.11454983 10.71543637 26.09765625 14.296875 C26.09443359 15.50214844 26.09121094 16.70742187 26.08789062 17.94921875 C26.07532227 19.83060547 26.07532227 19.83060547 26.0625 21.75 C26.05798828 23.01972656 26.05347656 24.28945312 26.04882812 25.59765625 C26.03704556 28.73181836 26.02059416 31.86588541 26 35 C24.02 35 22.04 35 20 35 C19.970271 33.78884521 19.970271 33.78884521 19.93994141 32.55322266 C19.84494101 28.91014125 19.73516088 25.26765314 19.625 21.625 C19.5940625 20.35398437 19.563125 19.08296875 19.53125 17.7734375 C19.47324219 15.95585938 19.47324219 15.95585938 19.4140625 14.1015625 C19.3826416 12.98088379 19.3512207 11.86020508 19.31884766 10.70556641 C19.26588797 7.85289588 19.26588797 7.85289588 17 6 C12.422373 5.47200492 12.422373 5.47200492 8.30932617 7.14575195 C6.45567158 9.77086972 6.5661879 11.78629624 6.48828125 14.98046875 C6.45283203 16.14384766 6.41738281 17.30722656 6.38085938 18.50585938 C6.35830078 19.72080078 6.33574219 20.93574219 6.3125 22.1875 C6.27833984 23.41404297 6.24417969 24.64058594 6.20898438 25.90429688 C6.1264059 28.93610678 6.05728631 31.96762379 6 35 C4.02 35 2.04 35 0 35 C-0.01981934 34.19256348 -0.03963867 33.38512695 -0.06005859 32.55322266 C-0.15505899 28.91014125 -0.26483912 25.26765314 -0.375 21.625 C-0.4059375 20.35398437 -0.436875 19.08296875 -0.46875 17.7734375 C-0.50742187 16.56171875 -0.54609375 15.35 -0.5859375 14.1015625 C-0.6173584 12.98088379 -0.6487793 11.86020508 -0.68115234 10.70556641 C-0.73411203 7.85289588 -0.73411203 7.85289588 -3 6 C-7.75871705 5.42175873 -7.75871705 5.42175873 -11.8125 7.5 C-12.204375 7.995 -12.59625 8.49 -13 9 C-13.66 9 -14.32 9 -15 9 C-15 17.25 -15 25.5 -15 34 C-16.32 34 -17.64 34 -19 34 C-19 23.11 -19 12.22 -19 1 C-17.68 1 -16.36 1 -15 1 C-15 1.99 -15 2.98 -15 4 C-14.195625 3.34 -13.39125 2.68 -12.5625 2 C-8.56846776 -0.6658505 -4.65978604 -0.75157839 0 0 Z " fill="#07CA98" transform="translate(63,76)"/>
<path d="M0 0 C0.66 0 1.32 0 2 0 C2 0.99 2 1.98 2 3 C-1.465 4.98 -1.465 4.98 -5 7 C-4.34 7.99 -3.68 8.98 -3 10 C-2.401875 9.835 -1.80375 9.67 -1.1875 9.5 C2.77294928 8.59475445 6.94807992 9 11 9 C11.495 10.98 11.495 10.98 12 13 C11.01 13.33 10.02 13.66 9 14 C9.99 14.99 9.99 14.99 11 16 C9.68 15.67 8.36 15.34 7 15 C7 13.68 7 12.36 7 11 C6.01 11 5.02 11 4 11 C4 12.32 4 13.64 4 15 C4.99 15.495 4.99 15.495 6 16 C5.00097656 16.06058594 4.00195312 16.12117188 2.97265625 16.18359375 C1.68230469 16.26738281 0.39195312 16.35117188 -0.9375 16.4375 C-2.22527344 16.51871094 -3.51304687 16.59992188 -4.83984375 16.68359375 C-7.86023957 16.64919188 -7.86023957 16.64919188 -9 18 C-10.5348297 18.09319449 -12.07392082 18.117458 -13.61157227 18.11352539 C-14.59251358 18.11344986 -15.5734549 18.11337433 -16.5841217 18.11329651 C-17.6507756 18.10813522 -18.7174295 18.10297394 -19.81640625 18.09765625 C-21.44569313 18.09553383 -21.44569313 18.09553383 -23.1078949 18.09336853 C-26.59279075 18.08775048 -30.07762342 18.07519492 -33.5625 18.0625 C-35.91861887 18.05748733 -38.27473874 18.05292402 -40.63085938 18.04882812 C-46.42059464 18.03777519 -52.21029281 18.02101951 -58 18 C-58 17.67 -58 17.34 -58 17 C-59.98 16.67 -61.96 16.34 -64 16 C-64 14.02 -64 12.04 -64 10 C-62.68 10 -61.36 10 -60 10 C-60 10.99 -60 11.98 -60 13 C-59.67 11.68 -59.34 10.36 -59 9 C-58.4225 9.20625 -57.845 9.4125 -57.25 9.625 C-54.99790132 10.23421144 -54.99790132 10.23421144 -53.18237305 9.0378418 C-50.56201193 7.7917119 -48.72417084 7.75624424 -45.83203125 7.76953125 C-44.85685547 7.77146484 -43.88167969 7.77339844 -42.87695312 7.77539062 C-41.36004883 7.79375977 -41.36004883 7.79375977 -39.8125 7.8125 C-38.78962891 7.81314453 -37.76675781 7.81378906 -36.71289062 7.81445312 C-29.14032251 7.85967749 -29.14032251 7.85967749 -28 9 C-27.95907063 11.33297433 -27.95758277 13.66705225 -28 16 C-27.34 16 -26.68 16 -26 16 C-25.67 15.34 -25.34 14.68 -25 14 C-23.68 14.66 -22.36 15.32 -21 16 C-20.67 15.34 -20.34 14.68 -20 14 C-20 14.66 -20 15.32 -20 16 C-19.34 16 -18.68 16 -18 16 C-18 14.35 -18 12.7 -18 11 C-20.31 10.67 -22.62 10.34 -25 10 C-25 9.01 -25 8.02 -25 7 C-18.565 6.505 -18.565 6.505 -12 6 C-12.66 5.34 -13.32 4.68 -14 4 C-13.15695313 3.87882812 -12.31390625 3.75765625 -11.4453125 3.6328125 C-10.34960938 3.46523437 -9.25390625 3.29765625 -8.125 3.125 C-7.03445312 2.96257812 -5.94390625 2.80015625 -4.8203125 2.6328125 C-1.88067286 2.23743487 -1.88067286 2.23743487 0 0 Z " fill="#FA4D5B" transform="translate(171,107)"/>
<path d="M0 0 C1.65 0 3.3 0 5 0 C5 0.66 5 1.32 5 2 C5.66 2 6.32 2 7 2 C7.33 8.93 7.66 15.86 8 23 C9.505625 21.35 11.01125 19.7 12.5625 18 C17.05480769 13.07692308 17.05480769 13.07692308 21.83984375 12.6875 C23.40412109 12.8421875 23.40412109 12.8421875 25 13 C25 17 25 17 22.77734375 19.4375 C20.88267872 21.14712897 18.98684273 22.85546114 17.08984375 24.5625 C16.40019531 25.366875 15.71054688 26.17125 15 27 C15.3307736 30.22261048 16.5928713 32.01607819 18.72265625 34.3828125 C19.26083984 34.99253906 19.79902344 35.60226563 20.35351562 36.23046875 C20.91748047 36.85566406 21.48144531 37.48085937 22.0625 38.125 C23.18276197 39.37369155 24.29887715 40.62611993 25.41015625 41.8828125 C25.90652588 42.43340332 26.40289551 42.98399414 26.91430664 43.55126953 C28 45 28 45 28 47 C24.86328125 47.4375 24.86328125 47.4375 21 47 C18.59818089 45.00059159 16.94454539 42.56741752 15.1875 40 C13.49662402 37.62957034 11.77609324 35.30921575 10 33 C9.34 33 8.68 33 8 33 C7.67 37.62 7.34 42.24 7 47 C5.02 47 3.04 47 1 47 C0 46 0 46 -0.12025452 44.13340759 C-0.11803391 43.31844315 -0.11581329 42.5034787 -0.11352539 41.66381836 C-0.11344986 40.7429393 -0.11337433 39.82206024 -0.11329651 38.87327576 C-0.10813522 37.87224319 -0.10297394 36.87121063 -0.09765625 35.83984375 C-0.0962413 34.82024063 -0.09482635 33.80063751 -0.09336853 32.75013733 C-0.08775097 29.47922893 -0.0751955 26.20838787 -0.0625 22.9375 C-0.05748726 20.72591244 -0.05292396 18.51432382 -0.04882812 16.30273438 C-0.03777584 10.86846643 -0.02102063 5.43423803 0 0 Z " fill="#18C395" transform="translate(142,27)"/>
<path d="M0 0 C0.99 0.33 1.98 0.66 3 1 C4.15666589 6.91868396 5.13018737 12.82739851 5.875 18.8125 C6.70246181 25.25488124 7.80764751 31.61570754 9 38 C10.6134557 46.64705629 11.92063814 55.26892435 13 64 C13.32876266 66.33398172 13.66088804 68.66749949 14 71 C12.68 70.67 11.36 70.34 10 70 C7.37632878 59.32389104 5.36646362 48.62592517 3.75 37.75 C3.57500977 36.58428467 3.40001953 35.41856934 3.21972656 34.2175293 C2.47795211 29.08518138 1.90946056 24.19542266 2 19 C1.34 19 0.68 19 0 19 C-0.05498657 19.93827637 -0.05498657 19.93827637 -0.11108398 20.89550781 C-0.84051309 31.26440119 -2.48411459 41.48458155 -4.0625 51.75 C-4.34737197 53.62234007 -4.63188003 55.49473554 -4.91601562 57.3671875 C-5.606485 61.91210772 -6.30186853 66.4562507 -7 71 C-8.65 71 -10.3 71 -12 71 C-11.42655916 64.69215077 -10.41973421 58.50215641 -9.29760742 52.27319336 C-8.15119775 45.89812021 -7.06428856 39.51428239 -6 33.125 C-5.83097168 32.11219971 -5.66194336 31.09939941 -5.48779297 30.0559082 C-4.67250484 25.14495464 -3.8744507 20.23214889 -3.11328125 15.3125 C-2.90928711 13.99548096 -2.90928711 13.99548096 -2.70117188 12.65185547 C-2.4479414 11.00553923 -2.19778668 9.35874602 -1.95117188 7.71142578 C-1.10876703 2.21753406 -1.10876703 2.21753406 0 0 Z " fill="#12CA9A" transform="translate(102,40)"/>
<path d="M0 0 C0.33 2.31 0.66 4.62 1 7 C-0.32 6.67 -1.64 6.34 -3 6 C-3 5.34 -3 4.68 -3 4 C-6.3 4.33 -9.6 4.66 -13 5 C-13.66 6.98 -14.32 8.96 -15 11 C-14.19175781 11.15855469 -13.38351563 11.31710938 -12.55078125 11.48046875 C-7.75587535 12.52736618 -3.85187157 13.42662491 0.25 16.1875 C2.56654409 19.9105173 2.94298388 22.72629326 2 27 C-0.17665604 30.57593492 -2.17070592 32.4178785 -6 34 C-12.62431652 34.80582026 -17.44944027 33.70037315 -23 30 C-23.1875 26.875 -23.1875 26.875 -23 24 C-22.43152344 24.22816406 -21.86304687 24.45632812 -21.27734375 24.69140625 C-15.97846026 26.66411246 -12.5194609 27.29178872 -7 26 C-6.67 24.35 -6.34 22.7 -6 21 C-6.73605469 20.85304688 -7.47210938 20.70609375 -8.23046875 20.5546875 C-17.21035295 18.490619 -17.21035295 18.490619 -20.1875 15.375 C-22.48401978 11.0987218 -22.99513113 7.75853612 -22 3 C-16.8294368 -4.13181132 -7.36966989 -3.02345431 0 0 Z " fill="#19C798" transform="translate(136,41)"/>
<path d="M0 0 C2.475 0.495 2.475 0.495 5 1 C5 1.99 5 2.98 5 4 C5.4125 3.505 5.825 3.01 6.25 2.5 C8 1 8 1 12 1 C13.58528205 0.85302021 15.1688237 0.68602074 16.75 0.5 C17.54921875 0.4071875 18.3484375 0.314375 19.171875 0.21875 C19.77515625 0.1465625 20.3784375 0.074375 21 0 C21.33 0.66 21.66 1.32 22 2 C22.61875 1.835 23.2375 1.67 23.875 1.5 C26 1 26 1 28 1 C29.0725 0.835 30.145 0.67 31.25 0.5 C37.08689895 -0.27825319 42.19270326 0.13965974 48 1 C49.32 1 50.64 1 52 1 C52 1.66 52 2.32 52 3 C52.721875 2.649375 53.44375 2.29875 54.1875 1.9375 C57.3122705 0.89590983 58.88161996 1.10903428 62 2 C62 2.99 62 3.98 62 5 C61.01 5 60.02 5 59 5 C59 5.66 59 6.32 59 7 C59.99 7.33 60.98 7.66 62 8 C51.75 8 51.75 8 48 7 C48 5.68 48 4.36 48 3 C47.34 3 46.68 3 46 3 C46 4.65 46 6.3 46 8 C44.35 8 42.7 8 41 8 C41 8.66 41 9.32 41 10 C27.47 10 13.94 10 0 10 C0 6.7 0 3.4 0 0 Z " fill="#FA4B59" transform="translate(44,115)"/>
<path d="M0 0 C4.28229897 0 6.25110444 0.06277611 10 1 C10.66 0.67 11.32 0.34 12 0 C20.69379015 -0.92390453 20.69379015 -0.92390453 24.5625 1.8125 C27.08058672 5.6443711 27.1186754 8.72213898 27.09765625 13.19921875 C27.09443359 14.40771484 27.09121094 15.61621094 27.08789062 16.86132812 C27.07951172 18.12396484 27.07113281 19.38660156 27.0625 20.6875 C27.05798828 21.96173828 27.05347656 23.23597656 27.04882812 24.54882812 C27.03702873 27.69926564 27.02056597 30.84960949 27 34 C25.35 34 23.7 34 22 34 C21.98018066 33.22285645 21.96036133 32.44571289 21.93994141 31.64501953 C21.84492991 28.13799309 21.73515441 24.63158206 21.625 21.125 C21.5940625 19.90167969 21.563125 18.67835937 21.53125 17.41796875 C21.49257812 16.25136719 21.45390625 15.08476563 21.4140625 13.8828125 C21.3826416 12.80402832 21.3512207 11.72524414 21.31884766 10.61376953 C21.25323678 7.84238346 21.25323678 7.84238346 19 6 C13.72996994 5.45194207 13.72996994 5.45194207 8.90869141 7.14892578 C6.26777828 9.71011833 6.46150725 11.34775335 6.390625 14.98046875 C6.35839844 16.14384766 6.32617188 17.30722656 6.29296875 18.50585938 C6.27878906 19.72080078 6.26460938 20.93574219 6.25 22.1875 C6.22035156 23.41404297 6.19070312 24.64058594 6.16015625 25.90429688 C6.08937101 28.93626453 6.03671587 31.96745933 6 35 C4.02 35 2.04 35 0 35 C0 23.45 0 11.9 0 0 Z " fill="#0DCB9A" transform="translate(117,76)"/>
<path d="M0 0 C2.31 0.33 4.62 0.66 7 1 C7 3.64 7 6.28 7 9 C7.63808594 8.98839844 8.27617188 8.97679687 8.93359375 8.96484375 C9.75988281 8.95582031 10.58617188 8.94679688 11.4375 8.9375 C12.26121094 8.92589844 13.08492187 8.91429687 13.93359375 8.90234375 C16 9 16 9 17 10 C17 11.65 17 13.3 17 15 C13.7 15 10.4 15 7 15 C7 22.26 7 29.52 7 37 C9.64 37 12.28 37 15 37 C15.66 37.33 16.32 37.66 17 38 C17.042721 39.66611905 17.04063832 41.33382885 17 43 C15.45016739 44.54983261 13.96331622 44.28132961 11.8125 44.375 C8.27223577 44.34676823 6.26556033 43.92820947 3.5 41.6875 C0.1935718 38.13308969 -0.12596055 35.78349071 -0.09765625 31.11328125 C-0.09443359 30.17548828 -0.09121094 29.23769531 -0.08789062 28.27148438 C-0.07951172 27.29501953 -0.07113281 26.31855469 -0.0625 25.3125 C-0.05798828 24.32443359 -0.05347656 23.33636719 -0.04882812 22.31835938 C-0.03704303 19.87884526 -0.02059011 17.43945311 0 15 C-1.32 14.67 -2.64 14.34 -4 14 C-4 12.35 -4 10.7 -4 9 C-2.68 9 -1.36 9 0 9 C0 6.03 0 3.06 0 0 Z " fill="#10C798" transform="translate(77,31)"/>
<path d="M0 0 C2.28799352 3.43199028 2.6005292 5.67112188 3.21875 9.73046875 C3.32215698 10.39855057 3.42556396 11.06663239 3.53210449 11.75495911 C3.75064414 13.17586902 3.96559912 14.59733419 4.17724609 16.01928711 C4.49230424 18.13580099 4.81728898 20.250574 5.14453125 22.36523438 C6.60440869 31.89076764 7.83848031 41.43359479 9 51 C3.72 51 -1.56 51 -7 51 C-5.36969242 33.88177046 -2.83890677 16.95688229 0 0 Z " fill="#F7F4F3" transform="translate(103,62)"/>
<path d="M0 0 C0.78761719 0.01546875 1.57523438 0.0309375 2.38671875 0.046875 C4.3125 0.25 4.3125 0.25 5.3125 1.25 C5.47108842 3.39386657 5.56379298 5.54266838 5.62890625 7.69140625 C5.69174805 9.64916992 5.69174805 9.64916992 5.75585938 11.64648438 C5.79567608 13.0351533 5.83538825 14.42382522 5.875 15.8125 C5.91817989 17.20509183 5.961794 18.59767028 6.00585938 19.99023438 C6.11235806 23.41002549 6.21297056 26.82999896 6.3125 30.25 C1.0325 30.25 -4.2475 30.25 -9.6875 30.25 C-9.62771577 25.81102114 -9.5407614 21.37549559 -9.4375 16.9375 C-9.42332031 15.67486328 -9.40914063 14.41222656 -9.39453125 13.11132812 C-9.36230469 11.90283203 -9.33007812 10.69433594 -9.296875 9.44921875 C-9.27592773 8.33377686 -9.25498047 7.21833496 -9.23339844 6.0690918 C-8.6875 3.25 -8.6875 3.25 -6.79467773 1.38305664 C-4.32745494 0.05639913 -2.78398536 -0.09203257 0 0 Z " fill="#F6FBF9" transform="translate(133.6875,82.75)"/>
<path d="M0 0 C1.79452313 1.79452313 1.21522261 4.50726285 1.28125 6.93359375 C1.31863281 8.13951172 1.35601562 9.34542969 1.39453125 10.58789062 C1.42933594 11.85826172 1.46414062 13.12863281 1.5 14.4375 C1.56866981 16.93631824 1.64137856 19.43502981 1.71875 21.93359375 C1.74904297 23.04790771 1.77933594 24.16222168 1.81054688 25.31030273 C1.82521039 27.96980714 1.82521039 27.96980714 3 30 C-1.95 30 -6.9 30 -12 30 C-12.10759131 25.56185831 -12.18713377 21.12630483 -12.25 16.6875 C-12.28351562 15.42486328 -12.31703125 14.16222656 -12.3515625 12.86132812 C-12.36445312 11.65283203 -12.37734375 10.44433594 -12.390625 9.19921875 C-12.41157227 8.08377686 -12.43251953 6.96833496 -12.45410156 5.8190918 C-12 3 -12 3 -10.10717773 1.13305664 C-6.62602184 -0.73880578 -3.90361886 -0.25597501 0 0 Z " fill="#FAF7F7" transform="translate(62,83)"/>
<path d="M0 0 C1.85965075 1.85965075 1.24087549 4.94889119 1.31640625 7.44140625 C1.37924805 9.39916992 1.37924805 9.39916992 1.44335938 11.39648438 C1.48317608 12.7851533 1.52288825 14.17382522 1.5625 15.5625 C1.60567989 16.95509183 1.649294 18.34767028 1.69335938 19.74023438 C1.79985806 23.16002549 1.90047056 26.57999896 2 30 C-2.62 30 -7.24 30 -12 30 C-12.10759131 25.56185831 -12.18713377 21.12630483 -12.25 16.6875 C-12.28351563 15.42486328 -12.31703125 14.16222656 -12.3515625 12.86132812 C-12.36445312 11.65283203 -12.37734375 10.44433594 -12.390625 9.19921875 C-12.41157227 8.08377686 -12.43251953 6.96833496 -12.45410156 5.8190918 C-12 3 -12 3 -10.10717773 1.13305664 C-6.62602184 -0.73880578 -3.90361886 -0.25597501 0 0 Z " fill="#FCF9F9" transform="translate(82,83)"/>
<path d="M0 0 C6 0 6 0 8 1 C8 1.66 8 2.32 8 3 C8.886875 2.484375 9.77375 1.96875 10.6875 1.4375 C14.20690743 -0.08979002 15.451125 -0.21675714 19 1 C20 2 20 2 20.0625 5.0625 C20.041875 6.031875 20.02125 7.00125 20 8 C16.37 8.99 12.74 9.98 9 11 C8.67 19.25 8.34 27.5 8 36 C2 36 2 36 0 35 C0 23.45 0 11.9 0 0 Z " fill="#16CB9C" transform="translate(256,76)"/>
<path d="M0 0 C3.09244792 0.03255208 6.18489583 0.06510417 9.27734375 0.09765625 C9.27734375 6.36765625 9.27734375 12.63765625 9.27734375 19.09765625 C2.18643466 22.6431108 2.18643466 22.6431108 -2.72265625 22.09765625 C-5.72265625 20.09765625 -5.72265625 20.09765625 -6.39453125 18.28125 C-7.18823582 12.99933504 -7.58332777 7.9312608 -5.28515625 3.03515625 C-2.92196995 0.10480523 -2.92196995 0.10480523 0 0 Z " fill="#F6F9F8" transform="translate(198.72265625,82.90234375)"/>
<path d="M0 0 C33.99 0 67.98 0 103 0 C103 11.55 103 23.1 103 35 C101.35 35 99.7 35 98 35 C98.99 34.67 99.98 34.34 101 34 C101 31.69 101 29.38 101 27 C92.09 27 83.18 27 74 27 C74 26.67 74 26.34 74 26 C82.91 26 91.82 26 101 26 C101 23.03 101 20.06 101 17 C88.46 17 75.92 17 63 17 C63 16.67 63 16.34 63 16 C75.54 16 88.08 16 101 16 C101 13.03 101 10.06 101 7 C87.14 7 73.28 7 59 7 C59 6.67 59 6.34 59 6 C72.86 6 86.72 6 101 6 C101 4.35 101 2.7 101 1 C67.67 1 34.34 1 0 1 C0 0.67 0 0.34 0 0 Z " fill="#C7E6D7" transform="translate(173,33)"/>
<path d="M0 0 C1.3096875 -0.00515625 2.619375 -0.0103125 3.96875 -0.015625 C7.22624027 0.22940745 8.78458404 0.59606482 11.5 2.25 C12.49 2.58 13.48 2.91 14.5 3.25 C14.17 4.57 13.84 5.89 13.5 7.25 C12.84 7.25 12.18 7.25 11.5 7.25 C11.5 6.59 11.5 5.93 11.5 5.25 C10.51 5.58 9.52 5.91 8.5 6.25 C9.16 6.91 9.82 7.57 10.5 8.25 C9.736875 8.064375 8.97375 7.87875 8.1875 7.6875 C5.41032625 7.02180827 5.41032625 7.02180827 2.5 8.25 C2.5 8.91 2.5 9.57 2.5 10.25 C-3.11 10.25 -8.72 10.25 -14.5 10.25 C-14.5 9.92 -14.5 9.59 -14.5 9.25 C-17.47 8.755 -17.47 8.755 -20.5 8.25 C-20.5 6.27 -20.5 4.29 -20.5 2.25 C-19.18 2.25 -17.86 2.25 -16.5 2.25 C-16.5 3.24 -16.5 4.23 -16.5 5.25 C-16.17 3.93 -15.84 2.61 -15.5 1.25 C-14.9225 1.45625 -14.345 1.6625 -13.75 1.875 C-11.51258715 2.49228391 -11.51258715 2.49228391 -9.828125 1.2890625 C-6.5141686 -0.18998516 -3.61168728 -0.01421924 0 0 Z " fill="#FA4E5C" transform="translate(127.5,114.75)"/>
<path d="M0 0 C3 1 3 1 4.25854492 3.10131836 C4.86339722 4.45688843 4.86339722 4.45688843 5.48046875 5.83984375 C6.14272461 7.3103418 6.14272461 7.3103418 6.81835938 8.81054688 C7.27017578 9.84244141 7.72199219 10.87433594 8.1875 11.9375 C8.88262695 13.47954102 8.88262695 13.47954102 9.59179688 15.05273438 C13 22.69734904 13 22.69734904 13 25 C14.03382813 24.94070312 15.06765625 24.88140625 16.1328125 24.8203125 C20.29955538 25.01391873 22.27052651 25.87676403 25.875 27.875 C33.6842453 31.73861728 41.39434606 32.402242 50 33 C49.505 33.99 49.505 33.99 49 35 C46.79112243 34.88501733 44.58289213 34.75756495 42.375 34.625 C41.14523437 34.55539063 39.91546875 34.48578125 38.6484375 34.4140625 C33.62794351 33.84428481 29.50226191 32.40792893 25.125 29.9375 C22.17865378 28.37137333 20.13484501 27.85004062 16.8125 27.8125 C13 27 13 27 11.59765625 25.40234375 C10.2270294 22.98951502 9.10859678 20.54449356 8 18 C7.45988281 16.87207031 6.91976562 15.74414062 6.36328125 14.58203125 C2 5.41812354 2 5.41812354 2 3 C1.34 3 0.68 3 0 3 C-0.226875 3.886875 -0.45375 4.77375 -0.6875 5.6875 C-2.19110199 9.48230501 -3.91505286 11.36650854 -7 14 C-7.99 14.33 -8.98 14.66 -10 15 C-10.92206007 17.1282187 -10.92206007 17.1282187 -11.5 19.6875 C-14.29396539 29.80657673 -14.29396539 29.80657673 -17.6640625 32.1640625 C-21.84282879 33.65947385 -26.21572519 32.91359758 -30.58984375 32.6796875 C-34.69183793 33.06498363 -35.88009723 34.446449 -39 37 C-42.11328125 37.390625 -42.11328125 37.390625 -45.3125 37.25 C-46.38113281 37.21390625 -47.44976562 37.1778125 -48.55078125 37.140625 C-49.35902344 37.09421875 -50.16726562 37.0478125 -51 37 C-50.01 35.35 -49.02 33.7 -48 32 C-44.62537285 32.54723683 -42.91765 33.0549 -40 35 C-39.48308594 34.34257813 -38.96617187 33.68515625 -38.43359375 33.0078125 C-35.15747039 30.30487926 -33.24555145 30.65178487 -29.0625 30.875 C-22.72434167 31.29654659 -22.72434167 31.29654659 -17 29 C-15.70571366 26.05928896 -15.70571366 26.05928896 -15 22.625 C-13.75074995 17.30367525 -12.55174938 15.08183968 -8 12 C-4.01645956 8.62002629 -2.13190035 4.67203693 0 0 Z " fill="#F69A8F" transform="translate(226,35)"/>
<path d="M0 0 C2.71597807 0.51732916 4.03164984 0.27800505 6.625 -0.5 C9.625 -0.5 9.625 -0.5 12 0.0625 C14.87746076 0.54207679 16.80943341 0.16684472 19.625 -0.5 C20.615 -0.5 21.605 -0.5 22.625 -0.5 C22.955 0.82 23.285 2.14 23.625 3.5 C22.635 3.83 21.645 4.16 20.625 4.5 C21.285 5.16 21.945 5.82 22.625 6.5 C21.305 6.17 19.985 5.84 18.625 5.5 C18.625 4.18 18.625 2.86 18.625 1.5 C17.635 1.5 16.645 1.5 15.625 1.5 C15.625 2.82 15.625 4.14 15.625 5.5 C16.285 5.83 16.945 6.16 17.625 6.5 C16.62597656 6.56058594 15.62695312 6.62117188 14.59765625 6.68359375 C13.30730469 6.76738281 12.01695312 6.85117188 10.6875 6.9375 C9.39972656 7.01871094 8.11195313 7.09992188 6.78515625 7.18359375 C3.76476043 7.14919188 3.76476043 7.14919188 2.625 8.5 C1.10571962 8.57179964 -0.41667482 8.58392007 -1.9375 8.5625 C-2.76378906 8.55347656 -3.59007812 8.54445313 -4.44140625 8.53515625 C-5.07949219 8.52355469 -5.71757812 8.51195313 -6.375 8.5 C-6.09348913 7.18528432 -5.79946661 5.87324233 -5.5 4.5625 C-5.33757812 3.83160156 -5.17515625 3.10070312 -5.0078125 2.34765625 C-4.00889798 -0.56892751 -2.89550948 -0.60958094 0 0 Z " fill="#FCA5AA" transform="translate(159.375,116.5)"/>
<path d="M0 0 C1.32 0.33 2.64 0.66 4 1 C6.42656241 14.00988281 2.92659777 27.31492742 0 40 C-0.33 40 -0.66 40 -1 40 C-1.0093457 39.29915283 -1.01869141 38.59830566 -1.02832031 37.8762207 C-1.08214544 34.68760975 -1.16576936 31.50044667 -1.25 28.3125 C-1.26417969 27.20970703 -1.27835938 26.10691406 -1.29296875 24.97070312 C-1.45872002 18.6271884 -1.45872002 18.6271884 -3.75 12.8125 C-6.17452654 10.85940918 -7.69792161 10.18121856 -10.75 9.6875 C-11.54921875 9.54699219 -12.3484375 9.40648438 -13.171875 9.26171875 C-13.77515625 9.17535156 -14.3784375 9.08898437 -15 9 C-15 8.67 -15 8.34 -15 8 C-6.585 7.505 -6.585 7.505 2 7 C1.08947925 3.14061025 1.08947925 3.14061025 0 0 Z " fill="#E9EDE9" transform="translate(91,67)"/>
<path d="M0 0 C0.99 0.33 1.98 0.66 3 1 C3.06993164 1.62567871 3.13986328 2.25135742 3.21191406 2.89599609 C3.53891369 5.72491084 3.89407119 8.54958571 4.25 11.375 C4.35957031 12.35984375 4.46914062 13.3446875 4.58203125 14.359375 C4.70449219 15.30039062 4.82695313 16.24140625 4.953125 17.2109375 C5.05786133 18.08024902 5.16259766 18.94956055 5.27050781 19.84521484 C5.80947981 22.18332045 5.80947981 22.18332045 8.06542969 23.29931641 C8.70383789 23.53054199 9.34224609 23.76176758 10 24 C9.34 24 8.68 24 8 24 C8 25.98 8 27.96 8 30 C13.53016248 32.96258704 18.77695139 33.6448755 25 33 C28.45346148 31.65253476 28.45346148 31.65253476 31 30 C30.67 30.99 30.34 31.98 30 33 C30.66 33.66 31.32 34.32 32 35 C29.85529407 35.36093104 27.70919203 35.71357589 25.5625 36.0625 C23.77005859 36.35833984 23.77005859 36.35833984 21.94140625 36.66015625 C20.97074219 36.77230469 20.00007813 36.88445312 19 37 C18.505 36.505 18.505 36.505 18 36 C16.02 36 14.04 36 12 36 C11.67 39.96 11.34 43.92 11 48 C8.80680323 45.80680323 8.53408703 44.88389999 7.81640625 41.94921875 C7.61241211 41.11511475 7.40841797 40.28101074 7.19824219 39.42163086 C6.98844727 38.51936768 6.77865234 37.61710449 6.5625 36.6875 C6.34368164 35.76138916 6.12486328 34.83527832 5.89941406 33.88110352 C3.79952843 24.68053372 2.45366015 15.41035911 1.30957031 6.04858398 C0.99807921 3.98728915 0.53827824 2.01287732 0 0 Z " fill="#F5EAEA" transform="translate(105,41)"/>
<path d="M0 0 C6.93 0 13.86 0 21 0 C21 3.96 21 7.92 21 12 C12.75 11.67 4.5 11.34 -4 11 C-3.67 10.34 -3.34 9.68 -3 9 C-0.69 9 1.62 9 4 9 C4 7.35 4 5.7 4 4 C4.33 4 4.66 4 5 4 C5 5.65 5 7.3 5 9 C5.66 9 6.32 9 7 9 C7.33 8.34 7.66 7.68 8 7 C8.33 7.33 8.66 7.66 9 8 C9 6.68 9 5.36 9 4 C9.99 4 10.98 4 12 4 C12.33 4.66 12.66 5.32 13 6 C14.32 6 15.64 6 17 6 C16.67 4.68 16.34 3.36 16 2 C14.3603125 2.2475 14.3603125 2.2475 12.6875 2.5 C9 3 9 3 6 3 C4.32900023 3.31088368 2.66128463 3.64080332 1 4 C0.67 2.68 0.34 1.36 0 0 Z " fill="#FA4C5A" transform="translate(166,114)"/>
<path d="M0 0 C2.06135201 3.09202802 2.4177565 4.57302634 2.9296875 8.1640625 C3.16026855 9.71299194 3.16026855 9.71299194 3.39550781 11.29321289 C3.55374023 12.39270264 3.71197266 13.49219238 3.875 14.625 C5.42571579 24.90108654 7.39890508 34.94151059 10 45 C10.33 41.7 10.66 38.4 11 35 C11.33 35 11.66 35 12 35 C12 44.9 12 54.8 12 65 C11.34 65 10.68 65 10 65 C8.70745544 59.73749716 7.78283875 54.56768119 7.125 49.1875 C6.35305824 43.07323118 5.25836357 37.09412558 4 31.0625 C1.89037982 20.89160307 -0.23748957 10.42975046 0 0 Z " fill="#C7B2AB" transform="translate(105,42)"/>
<path d="M0 0 C0.60194175 7.22330097 0.60194175 7.22330097 -1.9375 10.5 C-6.05104734 12.5147987 -9.50307622 12.3526999 -14 12 C-14.48199083 4.64963982 -14.48199083 4.64963982 -12.5625 2.0625 C-8.58150884 0.41184513 -4.30409823 0 0 0 Z " fill="#F3F7F5" transform="translate(173,94)"/>
<path d="M0 0 C1.50433594 0.01353516 1.50433594 0.01353516 3.0390625 0.02734375 C3.80992188 0.03894531 4.58078125 0.05054687 5.375 0.0625 C5.375 0.7225 5.375 1.3825 5.375 2.0625 C6.4578125 1.5365625 6.4578125 1.5365625 7.5625 1 C10.6872705 -0.04159017 12.25661996 0.17153428 15.375 1.0625 C15.375 2.0525 15.375 3.0425 15.375 4.0625 C14.385 4.0625 13.395 4.0625 12.375 4.0625 C12.375 4.7225 12.375 5.3825 12.375 6.0625 C13.365 6.3925 14.355 6.7225 15.375 7.0625 C5.125 7.0625 5.125 7.0625 1.375 6.0625 C1.375 4.7425 1.375 3.4225 1.375 2.0625 C0.715 2.0625 0.055 2.0625 -0.625 2.0625 C-0.625 3.7125 -0.625 5.3625 -0.625 7.0625 C-2.275 7.0625 -3.925 7.0625 -5.625 7.0625 C-5.625 7.7225 -5.625 8.3825 -5.625 9.0625 C-6.285 9.0625 -6.945 9.0625 -7.625 9.0625 C-7.625 6.4225 -7.625 3.7825 -7.625 1.0625 C-4.98041621 -0.25979189 -2.94738699 -0.03427194 0 0 Z " fill="#FB9199" transform="translate(90.625,115.9375)"/>
<path d="M0 0 C1.98 0 3.96 0 6 0 C6.33 1.32 6.66 2.64 7 4 C6.34 4 5.68 4 5 4 C5 3.01 5 2.02 5 1 C3.68 1 2.36 1 1 1 C1 11.89 1 22.78 1 34 C2.32 34 3.64 34 5 34 C4.97381592 33.26362305 4.94763184 32.52724609 4.9206543 31.76855469 C4.81666314 28.42925384 4.7516659 25.09029345 4.6875 21.75 C4.6246582 20.01169922 4.6246582 20.01169922 4.56054688 18.23828125 C4.43696535 9.68643951 4.43696535 9.68643951 7.28125 6.21875 C10.68243549 4.69408064 13.31416662 4.71091503 17 5 C17.33 5.66 17.66 6.32 18 7 C16.9275 7.12375 15.855 7.2475 14.75 7.375 C10.83151332 7.8391718 10.83151332 7.8391718 7 10 C7 18.58 7 27.16 7 36 C4.69 35.67 2.38 35.34 0 35 C0 23.45 0 11.9 0 0 Z " fill="#40C59C" transform="translate(43,76)"/>
<path d="M0 0 C0.495 0.99 0.495 0.99 1 2 C-0.0725 2.12375 -1.145 2.2475 -2.25 2.375 C-6.16848668 2.8391718 -6.16848668 2.8391718 -10 5 C-10 13.91 -10 22.82 -10 32 C-5.38 32 -0.76 32 4 32 C4.33 31.34 4.66 30.68 5 30 C7.31 30.33 9.62 30.66 12 31 C12 31.66 12 32.32 12 33 C-4.17 33 -20.34 33 -37 33 C-36.34 32.01 -35.68 31.02 -35 30 C-34.32582031 30.16371094 -33.65164062 30.32742187 -32.95703125 30.49609375 C-29.48632094 31.0875358 -26.20677876 31.09539046 -22.6875 31.0625 C-21.43324219 31.05347656 -20.17898437 31.04445313 -18.88671875 31.03515625 C-17.93410156 31.02355469 -16.98148438 31.01195313 -16 31 C-16 30.67 -16 30.34 -16 30 C-14.35 30 -12.7 30 -11 30 C-11.02094727 29.23333008 -11.04189453 28.46666016 -11.06347656 27.67675781 C-11.14665158 24.2013054 -11.19866575 20.72606237 -11.25 17.25 C-11.28351563 16.0434375 -11.31703125 14.836875 -11.3515625 13.59375 C-11.36445312 12.43359375 -11.37734375 11.2734375 -11.390625 10.078125 C-11.41157227 9.00981445 -11.43251953 7.94150391 -11.45410156 6.84082031 C-10.37445177 0.0866241 -6.08226358 -0.46786643 0 0 Z " fill="#F9D2D3" transform="translate(80,81)"/>
<path d="M0 0 C1.33804688 0.17982422 1.33804688 0.17982422 2.703125 0.36328125 C3.37859375 0.47027344 4.0540625 0.57726562 4.75 0.6875 C5.08 2.9975 5.41 5.3075 5.75 7.6875 C0.47 7.6875 -4.81 7.6875 -10.25 7.6875 C-9.25 2.6875 -9.25 2.6875 -7.515625 0.85546875 C-4.68642463 -0.60303282 -3.1244489 -0.45222287 0 0 Z " fill="#F3F6F4" transform="translate(238.25,82.3125)"/>
<path d="M0 0 C3.96 0 7.92 0 12 0 C12 6 12 6 11 8 C13.64 8 16.28 8 19 8 C17 10 17 10 14.29443359 10.22705078 C13.17375488 10.21657715 12.05307617 10.20610352 10.8984375 10.1953125 C9.08085938 10.18564453 9.08085938 10.18564453 7.2265625 10.17578125 C5.95554687 10.15902344 4.68453125 10.14226562 3.375 10.125 C2.09625 10.11597656 0.8175 10.10695313 -0.5 10.09765625 C-3.66685167 10.07402303 -6.83333424 10.04107629 -10 10 C-9.34 9.01 -8.68 8.02 -8 7 C-7.34 7.33 -6.68 7.66 -6 8 C-6 6.35 -6 4.7 -6 3 C-5.34 3 -4.68 3 -4 3 C-3.67 4.32 -3.34 5.64 -3 7 C-1.35 6.67 0.3 6.34 2 6 C2 6.66 2 7.32 2 8 C3.65 7.67 5.3 7.34 7 7 C7 6.34 7 5.68 7 5 C7.99 5 8.98 5 10 5 C9.67 4.01 9.34 3.02 9 2 C5.65747276 1.92572162 3.1964086 1.93453047 0 3 C0 2.01 0 1.02 0 0 Z " fill="#FA4A58" transform="translate(96,115)"/>
<path d="M0 0 C0.33 0 0.66 0 1 0 C1 1.65 1 3.3 1 5 C14.2 5 27.4 5 41 5 C41 3.35 41 1.7 41 0 C41.66 0 42.32 0 43 0 C43 4.29 43 8.58 43 13 C42.34 13.33 41.68 13.66 41 14 C41 11.36 41 8.72 41 6 C27.8 6 14.6 6 1 6 C1 16.56 1 27.12 1 38 C0.67 38 0.34 38 0 38 C0 25.46 0 12.92 0 0 Z " fill="#E9EEE8" transform="translate(173,34)"/>
<path d="M0 0 C0.33 0.66 0.66 1.32 1 2 C7.6 2 14.2 2 21 2 C21 2.33 21 2.66 21 3 C14.4 3 7.8 3 1 3 C1 5.64 1 8.28 1 11 C13.87 11 26.74 11 40 11 C40 11.33 40 11.66 40 12 C27.13 12 14.26 12 1 12 C1 12.99 1 13.98 1 15 C0.34 15 -0.32 15 -1 15 C-1 14.34 -1 13.68 -1 13 C-3.31 13 -5.62 13 -8 13 C-6.8125 11.4375 -6.8125 11.4375 -5 10 C-3.35 10.33 -1.7 10.66 0 11 C0 7.37 0 3.74 0 0 Z M-4 5 C-3.34 6.32 -2.68 7.64 -2 9 C-2.99 9 -3.98 9 -5 9 C-4.67 7.68 -4.34 6.36 -4 5 Z " fill="#FCE6DF" transform="translate(215,57)"/>
<path d="M0 0 C0.66 0.33 1.32 0.66 2 1 C2 2.98 2 4.96 2 7 C-3.445 8.485 -3.445 8.485 -9 10 C-9.33 18.25 -9.66 26.5 -10 35 C-11.98 35 -13.96 35 -16 35 C-14.02 34.505 -14.02 34.505 -12 34 C-12.0314209 32.88757935 -12.0314209 32.88757935 -12.06347656 31.75268555 C-12.14654137 28.3977612 -12.19863014 25.04305293 -12.25 21.6875 C-12.28351563 20.52025391 -12.31703125 19.35300781 -12.3515625 18.15039062 C-12.36445313 17.03212891 -12.37734375 15.91386719 -12.390625 14.76171875 C-12.41157227 13.73006592 -12.43251953 12.69841309 -12.45410156 11.63549805 C-12 9 -12 9 -10.109375 7.171875 C-6.76876567 5.31598093 -3.78401781 5.31533482 0 5 C0 3.35 0 1.7 0 0 Z " fill="#BA8580" transform="translate(274,77)"/>
<path d="M0 0 C0.33 0 0.66 0 1 0 C1.04975831 4.83803846 1.08588788 9.67592509 1.10986328 14.51416016 C1.11986737 16.15709023 1.13347494 17.80000274 1.15087891 19.44287109 C1.17537515 21.81612505 1.18653917 24.18914185 1.1953125 26.5625 C1.20563507 27.28679199 1.21595764 28.01108398 1.22659302 28.75732422 C1.22768342 33.81096142 0.48492786 38.15778646 -1 43 C-5.83597005 47.59742445 -13.11284013 47.41714677 -19.3984375 47.3359375 C-22 47 -22 47 -25 45 C-23.81921875 44.96261719 -22.6384375 44.92523438 -21.421875 44.88671875 C-19.86455212 44.82104851 -18.30726186 44.75460153 -16.75 44.6875 C-15.97269531 44.66494141 -15.19539062 44.64238281 -14.39453125 44.61914062 C-11.1821638 44.4681319 -8.59846301 44.26455236 -5.640625 42.95703125 C0.64913609 35.45424481 -0.44887296 25.23215536 -0.3125 16 C-0.2792797 14.44658657 -0.24478578 12.89319983 -0.20898438 11.33984375 C-0.12461752 7.56004407 -0.05755671 3.7802991 0 0 Z " fill="#BF7B79" transform="translate(214,78)"/>
<path d="M0 0 C0.33 0.66 0.66 1.32 1 2 C0.28972656 2.13277344 -0.42054688 2.26554687 -1.15234375 2.40234375 C-2.07144531 2.57894531 -2.99054688 2.75554687 -3.9375 2.9375 C-4.85402344 3.11152344 -5.77054688 3.28554687 -6.71484375 3.46484375 C-8.95289844 3.77714988 -8.95289844 3.77714988 -10 5 C-10.15806531 6.92478813 -10.251135 8.8549921 -10.31640625 10.78515625 C-10.35830078 11.95498047 -10.40019531 13.12480469 -10.44335938 14.33007812 C-10.48267578 15.56177734 -10.52199219 16.79347656 -10.5625 18.0625 C-10.62727539 19.91584961 -10.62727539 19.91584961 -10.69335938 21.80664062 C-10.79984198 24.87097335 -10.90185424 27.93539073 -11 31 C-12.98 31 -14.96 31 -17 31 C-15.68 30.67 -14.36 30.34 -13 30 C-13.02618408 29.23333008 -13.05236816 28.46666016 -13.0793457 27.67675781 C-13.18331223 24.20138051 -13.24832724 20.72633017 -13.3125 17.25 C-13.35439453 16.0434375 -13.39628906 14.836875 -13.43945312 13.59375 C-13.45556641 12.43359375 -13.47167969 11.2734375 -13.48828125 10.078125 C-13.51446533 9.00981445 -13.54064941 7.94150391 -13.56762695 6.84082031 C-13 4 -13 4 -10.609375 1.64453125 C-6.76581049 -0.77783501 -4.44982372 -0.30168296 0 0 Z " fill="#BC827D" transform="translate(136,81)"/>
<path d="M0 0 C0.66 0.33 1.32 0.66 2 1 C2 10.24 2 19.48 2 29 C7.05451135 29.84964136 7.05451135 29.84964136 12.0859375 30.31640625 C13.13974609 30.37924805 13.13974609 30.37924805 14.21484375 30.44335938 C14.92769531 30.48267578 15.64054687 30.52199219 16.375 30.5625 C17.47908203 30.62727539 17.47908203 30.62727539 18.60546875 30.69335938 C20.40348068 30.79843799 22.20171958 30.89962093 24 31 C23.67 29.02 23.34 27.04 23 25 C23.33 25.99 23.66 26.98 24 28 C26.01508358 28.73323796 26.01508358 28.73323796 28 29 C28.33 27.68 28.66 26.36 29 25 C29 26.65 29 28.3 29 30 C25.87070822 31.83069903 23.62356854 32.23931181 20.015625 32.1953125 C19.08105469 32.18886719 18.14648438 32.18242188 17.18359375 32.17578125 C15.73146484 32.15064453 15.73146484 32.15064453 14.25 32.125 C13.26644531 32.11597656 12.28289062 32.10695312 11.26953125 32.09765625 C8.84610593 32.07412785 6.42317778 32.04125368 4 32 C4 31.34 4 30.68 4 30 C1.69 30 -0.62 30 -3 30 C-1.68 29.67 -0.36 29.34 1 29 C0.67 19.43 0.34 9.86 0 0 Z " fill="#D79A9A" transform="translate(88,82)"/>
<path d="M0 0 C0.66 0.33 1.32 0.66 2 1 C3.22322357 5.15896013 3 8.49478944 3 13 C-4.92 13 -12.84 13 -21 13 C-21 14.65 -21 16.3 -21 18 C-21.66 17.34 -22.32 16.68 -23 16 C-23 14.35 -23 12.7 -23 11 C-15.08 11 -7.16 11 1 11 C0.67 7.37 0.34 3.74 0 0 Z " fill="#BD8781" transform="translate(249,83)"/>
<path d="M0 0 C0.66 0 1.32 0 2 0 C2 0.99 2 1.98 2 3 C-0.31 4.32 -2.62 5.64 -5 7 C-5 7.66 -5 8.32 -5 9 C-5.99 9 -6.98 9 -8 9 C-8.33 9.66 -8.66 10.32 -9 11 C-10.03125 10.67 -11.0625 10.34 -12.125 10 C-16.66231487 8.70493644 -20.47876205 8.49292068 -25 10 C-25 9.01 -25 8.02 -25 7 C-18.565 6.505 -18.565 6.505 -12 6 C-12.66 5.34 -13.32 4.68 -14 4 C-13.15695313 3.87882812 -12.31390625 3.75765625 -11.4453125 3.6328125 C-10.34960938 3.46523437 -9.25390625 3.29765625 -8.125 3.125 C-6.48917969 2.88136719 -6.48917969 2.88136719 -4.8203125 2.6328125 C-1.88067286 2.23743487 -1.88067286 2.23743487 0 0 Z " fill="#FA4150" transform="translate(171,107)"/>
<path d="M0 0 C0.66 -0.33 1.32 -0.66 2 -1 C2 -0.34 2 0.32 2 1 C2.66 1.33 3.32 1.66 4 2 C3.01 2 2.02 2 1 2 C1.20625 2.61875 1.4125 3.2375 1.625 3.875 C1.74875 4.57625 1.8725 5.2775 2 6 C0 8 0 8 -2.1640625 8.1953125 C-3.38222656 8.16050781 -3.38222656 8.16050781 -4.625 8.125 C-5.44226563 8.10695313 -6.25953125 8.08890625 -7.1015625 8.0703125 C-7.72804687 8.04710938 -8.35453125 8.02390625 -9 8 C-8.71848913 6.68528432 -8.42446661 5.37324233 -8.125 4.0625 C-7.96257812 3.33160156 -7.80015625 2.60070312 -7.6328125 1.84765625 C-6.25754267 -2.16779208 -3.38266106 -0.67653221 0 0 Z " fill="#FA5561" transform="translate(162,117)"/>
<path d="M0 0 C1.485 0.495 1.485 0.495 3 1 C-1.40586092 3.93724061 -5.38893396 2.95387824 -10.5546875 2.6796875 C-14.68503925 3.06368846 -15.86263261 4.42805927 -19 7 C-22.11328125 7.390625 -22.11328125 7.390625 -25.3125 7.25 C-26.91544922 7.19585937 -26.91544922 7.19585937 -28.55078125 7.140625 C-29.35902344 7.09421875 -30.16726562 7.0478125 -31 7 C-30.01 5.35 -29.02 3.7 -28 2 C-24.62537285 2.54723683 -22.91765 3.0549 -20 5 C-19.48695313 4.34386719 -18.97390625 3.68773438 -18.4453125 3.01171875 C-15.13266267 0.28645571 -13.10116216 0.62280796 -8.875 0.8125 C-4.27439466 1.20856444 -4.27439466 1.20856444 0 0 Z " fill="#F9A99C" transform="translate(206,65)"/>
<path d="M0 0 C0.99 0.66 1.98 1.32 3 2 C3.34057617 4.88916016 3.34057617 4.88916016 3.29296875 8.5390625 C3.28330078 9.84101562 3.27363281 11.14296875 3.26367188 12.484375 C3.23860388 13.86458923 3.21320902 15.24479756 3.1875 16.625 C3.17245517 18.01300663 3.15876641 19.40102867 3.14648438 20.7890625 C3.1110257 24.19309509 3.06160298 27.59635622 3 31 C1.02 31 -0.96 31 -3 31 C-3 30.34 -3 29.68 -3 29 C-1.68 29 -0.36 29 1 29 C0.67 19.43 0.34 9.86 0 0 Z " fill="#9B8C7F" transform="translate(143,81)"/>
<path d="M0 0 C0.99 0.66 1.98 1.32 3 2 C3.34057617 4.88916016 3.34057617 4.88916016 3.29296875 8.5390625 C3.28330078 9.84101562 3.27363281 11.14296875 3.26367188 12.484375 C3.23860388 13.86458923 3.21320902 15.24479756 3.1875 16.625 C3.17245517 18.01300663 3.15876641 19.40102867 3.14648438 20.7890625 C3.1110257 24.19309509 3.06160298 27.59635622 3 31 C1.02 31 -0.96 31 -3 31 C-3 30.34 -3 29.68 -3 29 C-1.68 29 -0.36 29 1 29 C0.67 19.43 0.34 9.86 0 0 Z " fill="#A48A7E" transform="translate(177,81)"/>
<path d="M0 0 C0.33 0 0.66 0 1 0 C1 1.65 1 3.3 1 5 C-2.3 5 -5.6 5 -9 5 C-9 11.93 -9 18.86 -9 26 C-11 24 -11 24 -11.22705078 21.84521484 C-11.21657715 20.97590332 -11.20610352 20.1065918 -11.1953125 19.2109375 C-11.18886719 18.26992188 -11.18242188 17.32890625 -11.17578125 16.359375 C-11.15902344 15.37453125 -11.14226562 14.3896875 -11.125 13.375 C-11.11597656 12.38242187 -11.10695313 11.38984375 -11.09765625 10.3671875 C-11.07404249 7.91135612 -11.0381707 5.45564826 -11 3 C-7.37 3 -3.74 3 0 3 C0 2.01 0 1.02 0 0 Z " fill="#B5847D" transform="translate(93,41)"/>
<path d="M0 0 C0.66 0 1.32 0 2 0 C2.33 0.66 2.66 1.32 3 2 C5.32156597 2.40729228 7.6568787 2.74438677 10 3 C9.67 4.98 9.34 6.96 9 9 C5.66666667 9 2.33333333 9 -1 9 C-1.09765625 2.84765625 -1.09765625 2.84765625 -1 1 C-0.67 0.67 -0.34 0.34 0 0 Z " fill="#FB9DA3" transform="translate(144,114)"/>
<path d="M0 0 C0.66 0.66 1.32 1.32 2 2 C4.10820797 1.6814823 4.10820797 1.6814823 6 1 C6 1.66 6 2.32 6 3 C5.01 3 4.02 3 3 3 C3.7763932 6.0745356 3.7763932 6.0745356 6 8 C4 10 4 10 0.375 10.125 C-0.73875 10.08375 -1.8525 10.0425 -3 10 C-5 4.25 -5 4.25 -5 2 C-3.35 2 -1.7 2 0 2 C0 1.34 0 0.68 0 0 Z " fill="#FB8F96" transform="translate(64,115)"/>
<path d="M0 0 C1.11375 0.3403125 1.11375 0.3403125 2.25 0.6875 C2.37375 1.326875 2.4975 1.96625 2.625 2.625 C2.83125 3.305625 3.0375 3.98625 3.25 4.6875 C3.91 5.0175 4.57 5.3475 5.25 5.6875 C5.25 6.3475 5.25 7.0075 5.25 7.6875 C1.62 7.6875 -2.01 7.6875 -5.75 7.6875 C-6.08 6.0375 -6.41 4.3875 -6.75 2.6875 C-4.29511132 0.41445492 -3.41240272 -0.38777304 0 0 Z " fill="#FB868E" transform="translate(76.75,115.3125)"/>
<path d="M0 0 C1.51400391 0.01740234 1.51400391 0.01740234 3.05859375 0.03515625 C4.07050781 0.04417969 5.08242187 0.05320312 6.125 0.0625 C7.29869141 0.07990234 7.29869141 0.07990234 8.49609375 0.09765625 C8.82609375 0.75765625 9.15609375 1.41765625 9.49609375 2.09765625 C8.73683594 2.11183594 7.97757813 2.12601562 7.1953125 2.140625 C5.70451172 2.21216797 5.70451172 2.21216797 4.18359375 2.28515625 C2.70439453 2.33736328 2.70439453 2.33736328 1.1953125 2.390625 C-1.65272796 2.86520926 -1.65272796 2.86520926 -3.34765625 5.22265625 C-4.72800195 8.65486718 -4.80315942 11.22230161 -4.69140625 14.91015625 C-4.66433594 16.07160156 -4.63726562 17.23304687 -4.609375 18.4296875 C-4.55716797 19.75033203 -4.55716797 19.75033203 -4.50390625 21.09765625 C-6.50390625 20.09765625 -6.50390625 20.09765625 -7.50390625 17.09765625 C-8.01418889 12.2374232 -8.37240939 7.72382761 -5.56640625 3.53515625 C-2.6630028 0.10386126 -2.6630028 0.10386126 0 0 Z " fill="#B1837C" transform="translate(197.50390625,80.90234375)"/>
<path d="M0 0 C0.33 0.66 0.66 1.32 1 2 C-0.0725 2.12375 -1.145 2.2475 -2.25 2.375 C-6.16848668 2.8391718 -6.16848668 2.8391718 -10 5 C-10 13.58 -10 22.16 -10 31 C-11.98 31 -13.96 31 -16 31 C-16 30.67 -16 30.34 -16 30 C-14.35 30 -12.7 30 -11 30 C-11.02094727 29.23333008 -11.04189453 28.46666016 -11.06347656 27.67675781 C-11.14665158 24.2013054 -11.19866575 20.72606237 -11.25 17.25 C-11.30027344 15.44015625 -11.30027344 15.44015625 -11.3515625 13.59375 C-11.36445312 12.43359375 -11.37734375 11.2734375 -11.390625 10.078125 C-11.41157227 9.00981445 -11.43251953 7.94150391 -11.45410156 6.84082031 C-10.37445177 0.0866241 -6.08226358 -0.46786643 0 0 Z " fill="#C06A6A" transform="translate(80,81)"/>
<path d="M0 0 C0.66 0 1.32 0 2 0 C2 1.98 2 3.96 2 6 C-4.39007353 8.8936182 -9.98610116 9.85481892 -17 9 C-20.1875 7.5 -20.1875 7.5 -22 6 C-20 5 -20 5 -18 5.4375 C-12.11946181 6.54010091 -5.80314798 6.54750613 0 5 C0 3.35 0 1.7 0 0 Z " fill="#AE7D75" transform="translate(249,104)"/>
<path d="M0 0 C0.33 0.66 0.66 1.32 1 2 C-0.0725 2.12375 -1.145 2.2475 -2.25 2.375 C-6.16848668 2.8391718 -6.16848668 2.8391718 -10 5 C-10 13.58 -10 22.16 -10 31 C-11.65 31 -13.3 31 -15 31 C-13.68 30.67 -12.36 30.34 -11 30 C-11.0314209 28.84999512 -11.0314209 28.84999512 -11.06347656 27.67675781 C-11.14665158 24.2013054 -11.19866575 20.72606237 -11.25 17.25 C-11.28351562 16.0434375 -11.31703125 14.836875 -11.3515625 13.59375 C-11.36445312 12.43359375 -11.37734375 11.2734375 -11.390625 10.078125 C-11.41157227 9.00981445 -11.43251953 7.94150391 -11.45410156 6.84082031 C-10.37445177 0.0866241 -6.08226358 -0.46786643 0 0 Z " fill="#B26D69" transform="translate(60,81)"/>
<path d="M0 0 C0.33 0 0.66 0 1 0 C1.48801743 7.19825708 1.48801743 7.19825708 -0.75 10.875 C-4.93650008 14.82891674 -8.21257285 15.31385994 -13.8046875 15.203125 C-16.47312958 14.95622289 -18.62315064 14.22676096 -21 13 C-17.88192695 12.05665688 -15.30187524 12.00282067 -12.0625 12.1875 C-8.62940337 12.20266832 -7.13847309 12.06923654 -4 10.5 C-1.2727801 7.09097512 -0.78426629 4.27781614 0 0 Z " fill="#B98A83" transform="translate(137,60)"/>
<path d="M0 0 C0.99 0.33 1.98 0.66 3 1 C2.34 1.66 1.68 2.32 1 3 C0.69940057 5.36509361 0.50484988 7.74441881 0.375 10.125 C0.26285156 12.04699219 0.26285156 12.04699219 0.1484375 14.0078125 C0.09945312 14.99523437 0.05046875 15.98265625 0 17 C-1.98 17 -3.96 17 -6 17 C-6.33 16.34 -6.66 15.68 -7 15 C-5.35 15 -3.7 15 -2 15 C-2.02320313 14.08476563 -2.04640625 13.16953125 -2.0703125 12.2265625 C-2.09738281 10.44378906 -2.09738281 10.44378906 -2.125 8.625 C-2.14820313 7.44164063 -2.17140625 6.25828125 -2.1953125 5.0390625 C-2 2 -2 2 0 0 Z " fill="#9F8A7E" transform="translate(149,57)"/>
<path d="M0 0 C0.99 0 1.98 0 3 0 C3 1.32 3 2.64 3 4 C2.01 4.495 2.01 4.495 1 5 C1.99 5 2.98 5 4 5 C4.33 3.35 4.66 1.7 5 0 C5.99 0 6.98 0 8 0 C8 4 8 4 7 7 C4.66705225 7.04241723 2.33297433 7.04092937 0 7 C-1 6 -1 6 -1.125 3.5 C-1 1 -1 1 0 0 Z " fill="#FCA6AC" transform="translate(117,116)"/>
<path d="M0 0 C0.99 0.33 1.98 0.66 3 1 C3 1.99 3 2.98 3 4 C3.33 2.68 3.66 1.36 4 0 C4.99 0 5.98 0 7 0 C7 2.33333333 7 4.66666667 7 7 C4.36 7 1.72 7 -1 7 C-1.04254356 5.00045254 -1.04080783 2.99958364 -1 1 C-0.67 0.67 -0.34 0.34 0 0 Z " fill="#FCA9AF" transform="translate(108,116)"/>
<path d="M0 0 C0 0.66 0 1.32 0 2 C-0.61488281 2.04898438 -1.22976562 2.09796875 -1.86328125 2.1484375 C-2.67152344 2.22320312 -3.47976562 2.29796875 -4.3125 2.375 C-5.51326172 2.47941406 -5.51326172 2.47941406 -6.73828125 2.5859375 C-9.27224441 2.89564426 -9.27224441 2.89564426 -12 5 C-12.73606499 8.56769552 -12.73606499 8.56769552 -13 12 C-15 10 -15 10 -15.5 7.125 C-15 4 -15 4 -12.5625 1.625 C-8.15929047 -0.38348154 -4.75056978 -0.38004558 0 0 Z " fill="#BB7F7B" transform="translate(172,93)"/>
<path d="M0 0 C-0.33 1.65 -0.66 3.3 -1 5 C-1.66 5 -2.32 5 -3 5 C-3 4.34 -3 3.68 -3 3 C-3.99 3.33 -4.98 3.66 -6 4 C-5.34 4.66 -4.68 5.32 -4 6 C-6.97 5.505 -6.97 5.505 -10 5 C-10 3.35 -10 1.7 -10 0 C-6.30581799 -1.231394 -3.7943739 -0.64432764 0 0 Z " fill="#FCB4B9" transform="translate(142,117)"/>
<path d="M0 0 C0.66 0 1.32 0 2 0 C2 0.99 2 1.98 2 3 C2.99 2.01 3.98 1.02 5 0 C5.99 0.33 6.98 0.66 8 1 C8 1.99 8 2.98 8 4 C7.01 4 6.02 4 5 4 C5 4.66 5 5.32 5 6 C5.99 6.33 6.98 6.66 8 7 C5.03 7 2.06 7 -1 7 C-0.34 6.67 0.32 6.34 1 6 C1 5.34 1 4.68 1 4 C0.34 4 -0.32 4 -1 4 C-0.67 2.68 -0.34 1.36 0 0 Z " fill="#FCB4B8" transform="translate(47,116)"/>
<path d="M0 0 C-1.58667578 3.90285767 -4.13350481 6.33520982 -7.125 9.25 C-8.03507813 10.14203125 -8.94515625 11.0340625 -9.8828125 11.953125 C-10.58148438 12.62859375 -11.28015625 13.3040625 -12 14 C-12.66 13.34 -13.32 12.68 -14 12 C-12.04761147 9.99387601 -10.08862178 7.99507567 -8.125 6 C-7.29162109 5.14148437 -7.29162109 5.14148437 -6.44140625 4.265625 C-2.2265625 0 -2.2265625 0 0 0 Z " fill="#CB7678" transform="translate(168,41)"/>
<path d="M0 0 C0.66 0 1.32 0 2 0 C2 0.99 2 1.98 2 3 C-4.8367988 7.04308153 -4.8367988 7.04308153 -9.375 6.875 C-12 6 -12 6 -14 4 C-12.73542969 3.81824219 -12.73542969 3.81824219 -11.4453125 3.6328125 C-10.34960938 3.46523437 -9.25390625 3.29765625 -8.125 3.125 C-7.03445312 2.96257812 -5.94390625 2.80015625 -4.8203125 2.6328125 C-1.88067286 2.23743487 -1.88067286 2.23743487 0 0 Z " fill="#AD887E" transform="translate(171,107)"/>
<path d="M0 0 C0.33 0.66 0.66 1.32 1 2 C0.39671875 1.96519531 -0.2065625 1.93039063 -0.828125 1.89453125 C-5.83394352 1.68349831 -5.83394352 1.68349831 -10.5 3.25 C-12.15296001 5.17845335 -12.65557106 6.50289018 -13 9 C-13.66 9 -14.32 9 -15 9 C-14.47229401 5.20051686 -13.62859821 2.83079807 -11 0 C-6.88825414 -1.37058195 -4.26339405 -0.75640862 0 0 Z " fill="#B77F7A" transform="translate(241,81)"/>
<path d="M0 0 C0 1.98 0 3.96 0 6 C-1.32 6 -2.64 6 -4 6 C-4 4.35 -4 2.7 -4 1 C-4.66 1 -5.32 1 -6 1 C-6 2.65 -6 4.3 -6 6 C-6.33 6 -6.66 6 -7 6 C-7 4.02 -7 2.04 -7 0 C-4.3333581 -1.33332095 -2.83319697 -0.67102033 0 0 Z " fill="#FCA7AC" transform="translate(162,117)"/>
<path d="M0 0 C2.375 0.25 2.375 0.25 5 1 C5.66 2.32 6.32 3.64 7 5 C3.7 5 0.4 5 -3 5 C-2.01 3.35 -1.02 1.7 0 0 Z " fill="#F9C0BB" transform="translate(178,67)"/>
<path d="M0 0 C0 0.99 0 1.98 0 3 C-0.99 3 -1.98 3 -3 3 C-3 3.66 -3 4.32 -3 5 C-2.01 5.33 -1.02 5.66 0 6 C-2.31 5.67 -4.62 5.34 -7 5 C-7 3.68 -7 2.36 -7 1 C-3.375 -1.125 -3.375 -1.125 0 0 Z " fill="#FB9198" transform="translate(106,117)"/>
<path d="M0 0 C0.33 0 0.66 0 1 0 C1 1.65 1 3.3 1 5 C1.66 5 2.32 5 3 5 C3.33 4.34 3.66 3.68 4 3 C4 3.66 4 4.32 4 5 C4.99 5.33 5.98 5.66 7 6 C3.68929162 7.00109515 0.69915231 7.10356134 -2.75 7.0625 C-3.73484375 7.05347656 -4.7196875 7.04445313 -5.734375 7.03515625 C-6.48203125 7.02355469 -7.2296875 7.01195313 -8 7 C-7.67 6.34 -7.34 5.68 -7 5 C-4.69 5 -2.38 5 0 5 C0 3.35 0 1.7 0 0 Z " fill="#FA4352" transform="translate(170,118)"/>
<path d="M0 0 C0.99 0.33 1.98 0.66 3 1 C2.01 1.495 2.01 1.495 1 2 C5.95 2.33 10.9 2.66 16 3 C16 3.33 16 3.66 16 4 C8.74 4 1.48 4 -6 4 C-2 1 -2 1 0 0 Z " fill="#F4D2D2" transform="translate(171,110)"/>
<path d="M0 0 C0.33 0 0.66 0 1 0 C1.042721 1.66611905 1.04063832 3.33382885 1 5 C-0.57922406 6.57922406 -2.19443874 6.207659 -4.375 6.25 C-5.56222656 6.28867188 -5.56222656 6.28867188 -6.7734375 6.328125 C-9 6 -9 6 -12 3 C-8.37 3 -4.74 3 -1 3 C-0.67 2.01 -0.34 1.02 0 0 Z " fill="#B68E86" transform="translate(93,69)"/>
<path d="M0 0 C0 0.66 0 1.32 0 2 C-0.66 2 -1.32 2 -2 2 C-2 3.32 -2 4.64 -2 6 C-1.34 6.33 -0.68 6.66 0 7 C-0.5775 6.814375 -1.155 6.62875 -1.75 6.4375 C-4.20692525 5.95976454 -5.64397534 6.24270636 -8 7 C-8.33 5.35 -8.66 3.7 -9 2 C-8.01 3.485 -8.01 3.485 -7 5 C-6.67 4.01 -6.34 3.02 -6 2 C-3.85412616 0.684787 -2.52986895 0 0 0 Z " fill="#FCB4B8" transform="translate(101,116)"/>
<path d="M0 0 C0.99 0.33 1.98 0.66 3 1 C2.34 1.66 1.68 2.32 1 3 C0.62904292 5.42246595 0.62904292 5.42246595 0.5859375 8.2265625 C0.54726563 9.2578125 0.50859375 10.2890625 0.46875 11.3515625 C0.4378125 12.43179688 0.406875 13.51203125 0.375 14.625 C0.33632813 15.71296875 0.29765625 16.8009375 0.2578125 17.921875 C0.16333753 20.61441165 0.07777569 23.30693757 0 26 C-0.33 26 -0.66 26 -1 26 C-1.02886751 21.85418113 -1.04675327 17.70838784 -1.0625 13.5625 C-1.07087891 12.37849609 -1.07925781 11.19449219 -1.08789062 9.97460938 C-1.09111328 8.84990234 -1.09433594 7.72519531 -1.09765625 6.56640625 C-1.10289307 5.52427979 -1.10812988 4.48215332 -1.11352539 3.40844727 C-1 1 -1 1 0 0 Z " fill="#FBF0EF" transform="translate(265,86)"/>
<path d="M0 0 C0 0.33 0 0.66 0 1 C-2.64 1.33 -5.28 1.66 -8 2 C-8.66 3.98 -9.32 5.96 -10 8 C-10.66 7.67 -11.32 7.34 -12 7 C-12.3125 4.6875 -12.3125 4.6875 -12 2 C-8.05545794 -1.58594733 -5.0039427 -1.07928176 0 0 Z " fill="#AF827A" transform="translate(131,44)"/>
<path d="M0 0 C4.29 0.33 8.58 0.66 13 1 C13 1.33 13 1.66 13 2 C8.59085217 3.10228696 4.51617599 3.07654536 0 3 C0 2.01 0 1.02 0 0 Z " fill="#FBEAE4" transform="translate(192,67)"/>
<path d="M0 0 C0.33 0 0.66 0 1 0 C1.48867825 7.20800421 1.48867825 7.20800421 -0.8125 10.9375 C-3 13 -3 13 -6 14 C-4.9789841 11.80088884 -3.99617852 9.99541423 -2.4375 8.125 C-0.63615871 5.46214766 -0.35927759 3.16164275 0 0 Z " fill="#C16E6E" transform="translate(137,60)"/>
<path d="M0 0 C0.66 1.32 1.32 2.64 2 4 C1.01 4 0.02 4 -1 4 C-0.67 2.68 -0.34 1.36 0 0 Z M-1 5 C1.475 5.99 1.475 5.99 4 7 C3.67 7.99 3.34 8.98 3 10 C3 9.34 3 8.68 3 8 C0.69 8 -1.62 8 -4 8 C-3.01 7.01 -2.02 6.02 -1 5 Z " fill="#FCEAE5" transform="translate(211,62)"/>
<path d="M0 0 C1.65 0 3.3 0 5 0 C4.67 1.98 4.34 3.96 4 6 C2.02 6 0.04 6 -2 6 C-1.34 5.67 -0.68 5.34 0 5 C0 3.35 0 1.7 0 0 Z " fill="#FCB0B5" transform="translate(149,117)"/>
<path d="M0 0 C6.875 0.875 6.875 0.875 8 2 C9.34747084 2.23075082 10.70377565 2.41153063 12.0625 2.5625 C13.361875 2.706875 14.66125 2.85125 16 3 C16 3.33 16 3.66 16 4 C4.1310267 4.56122991 4.1310267 4.56122991 0 1 C0 0.67 0 0.34 0 0 Z " fill="#B59C94" transform="translate(227,109)"/>
<path d="M0 0 C0.66 0 1.32 0 2 0 C2.33 1.32 2.66 2.64 3 4 C3.66 3.01 4.32 2.02 5 1 C4.67 2.65 4.34 4.3 4 6 C3.34 6 2.68 6 2 6 C2 6.66 2 7.32 2 8 C1.34 8 0.68 8 0 8 C0 5.36 0 2.72 0 0 Z " fill="#FCB0B5" transform="translate(83,117)"/>
<path d="M0 0 C0 0.66 0 1.32 0 2 C-0.66 2 -1.32 2 -2 2 C-2.33 2.66 -2.66 3.32 -3 4 C-3 3.34 -3 2.68 -3 2 C-4.32 2.33 -5.64 2.66 -7 3 C-7 4.65 -7 6.3 -7 8 C-7.33 8 -7.66 8 -8 8 C-8 5.69 -8 3.38 -8 1 C-5.10765685 0.17361624 -3.11257569 0 0 0 Z " fill="#FB848D" transform="translate(64,115)"/>
<path d="M0 0 C1.134375 0.020625 2.26875 0.04125 3.4375 0.0625 C3.7675 0.7225 4.0975 1.3825 4.4375 2.0625 C3.344375 2.18625 2.25125 2.31 1.125 2.4375 C-2.63631802 2.81714801 -2.63631802 2.81714801 -5.5625 5.0625 C-4.43693182 0.07784091 -4.43693182 0.07784091 0 0 Z " fill="#B9837F" transform="translate(56.5625,80.9375)"/>
<path d="M0 0 C0.33 0 0.66 0 1 0 C1 1.65 1 3.3 1 5 C1.66 5.33 2.32 5.66 3 6 C2.34 6 1.68 6 1 6 C1 6.66 1 7.32 1 8 C-0.65 8 -2.3 8 -4 8 C-3.67 6.68 -3.34 5.36 -3 4 C-2.34 4 -1.68 4 -1 4 C-0.67 2.68 -0.34 1.36 0 0 Z " fill="#FBA5AB" transform="translate(129,117)"/>
<path d="M0 0 C0.99 0 1.98 0 3 0 C3 1.32 3 2.64 3 4 C2.01 4.495 2.01 4.495 1 5 C1.66 5.66 2.32 6.32 3 7 C1.68 6.67 0.36 6.34 -1 6 C-1.042721 4.33388095 -1.04063832 2.66617115 -1 1 C-0.67 0.67 -0.34 0.34 0 0 Z " fill="#FCB2B7" transform="translate(117,116)"/>
<path d="M0 0 C0.99 0.33 1.98 0.66 3 1 C3 2.98 3 4.96 3 7 C1.68 6.67 0.36 6.34 -1 6 C-0.67 4.02 -0.34 2.04 0 0 Z " fill="#FCB4B8" transform="translate(164,116)"/>
<path d="M0 0 C-0.8345262 2.50357861 -1.79371992 4.66785852 -3 7 C-3.66 7 -4.32 7 -5 7 C-5.33 5.02 -5.66 3.04 -6 1 C-3 0 -3 0 0 0 Z " fill="#FA5764" transform="translate(135,115)"/>
<path d="M0 0 C0.33 0.66 0.66 1.32 1 2 C1.33 1.34 1.66 0.68 2 0 C2.66 0 3.32 0 4 0 C4 0.99 4 1.98 4 3 C3.01 3 2.02 3 1 3 C1 3.66 1 4.32 1 5 C1.99 5.33 2.98 5.66 4 6 C2.68 6 1.36 6 0 6 C-0.38218767 4.34385343 -0.71395102 2.67542976 -1 1 C-0.67 0.67 -0.34 0.34 0 0 Z " fill="#FCC2C5" transform="translate(71,117)"/>
<path d="M0 0 C1.32 0.33 2.64 0.66 4 1 C4 2.98 4 4.96 4 7 C3.34 6.34 2.68 5.68 2 5 C1.01 5.495 1.01 5.495 0 6 C0 4.02 0 2.04 0 0 Z " fill="#FA757F" transform="translate(85,116)"/>
<path d="M0 0 C0.66 0 1.32 0 2 0 C2 1.98 2 3.96 2 6 C1.01 6 0.02 6 -1 6 C-1.042721 4.33388095 -1.04063832 2.66617115 -1 1 C-0.67 0.67 -0.34 0.34 0 0 Z " fill="#FB8890" transform="translate(147,116)"/>
<path d="M0 0 C2.31 0 4.62 0 7 0 C7.33 0.66 7.66 1.32 8 2 C5.36 2.33 2.72 2.66 0 3 C0 2.01 0 1.02 0 0 Z " fill="#B48680" transform="translate(73,81)"/>
<path d="M0 0 C0 0.99 0 1.98 0 3 C0.66 3.66 1.32 4.32 2 5 C-0.31 5 -2.62 5 -5 5 C-5 4.34 -5 3.68 -5 3 C-2.5 1.375 -2.5 1.375 0 0 Z " fill="#D7E3DB" transform="translate(135,71)"/>
</svg>
